<?xml version="1.0" encoding="utf-8"?><svg version="1.1" id="Layer_1" xmlns="http://www.w3.org/2000/svg" xmlns:xlink="http://www.w3.org/1999/xlink" x="0px" y="0px" viewBox="0 0 122.83 122.88" style="enable-background:new 0 0 122.83 122.88" xml:space="preserve"><g><path d="M81.53,4.71c0-2.62,2.58-4.71,5.77-4.71c3.2,0,5.77,2.13,5.77,4.71V25.4c0,2.62-2.58,4.71-5.77,4.71 c-3.2,0-5.77-2.13-5.77-4.71V4.71L81.53,4.71z M46.21,85.9h10.78V73.6c0-0.95,0.78-1.72,1.72-1.72h5.41c0.95,0,1.72,0.78,1.72,1.72 v12.3h10.78c4.64,0,8.44,3.8,8.44,8.45v8.54h4.69c1.49,0,2.71,1.21,2.71,2.71c0,1.49-1.21,2.71-2.71,2.71H33.07 c-1.49,0-2.71-1.21-2.71-2.71c0-1.49,1.21-2.71,2.71-2.71h4.69v-8.54C37.77,89.7,41.57,85.9,46.21,85.9L46.21,85.9z M61.42,58.26 c0.93,4.14,3.74,6.21,3.74,8.29c0,2.07-0.93,4.14-3.74,4.14c-2.8,0-3.74-2.07-3.74-4.14C57.68,64.48,60.48,62.41,61.42,58.26 L61.42,58.26z M29.53,4.71C29.53,2.09,32.11,0,35.3,0c3.2,0,5.77,2.13,5.77,4.71V25.4c0,2.62-2.58,4.71-5.77,4.71 c-3.2,0-5.77-2.13-5.77-4.71V4.71L29.53,4.71z M7.56,44.09h107.62V22.66c0-0.8-0.31-1.55-0.84-2.04c-0.53-0.53-1.24-0.84-2.04-0.84 h-9.31c-1.78,0-3.2-2.63-3.2-4.41c0-1.78,1.42-3.2,3.2-3.2h10.52c2.58,0,4.88,1.07,6.57,2.75c1.69,1.69,2.75,4.04,2.75,6.57v92.06 c0,2.58-1.07,4.88-2.75,6.57c-1.69,1.69-4.04,2.75-6.57,2.75H9.33c-2.58,0-4.88-1.07-6.57-2.75C1.07,118.44,0,116.08,0,113.55 V21.49c0-2.58,1.07-4.88,2.75-6.57c1.69-1.69,4.04-2.75,6.57-2.75h11.28c1.78,0,3.2,1.42,3.2,3.2c0,1.78-1.42,4.41-3.2,4.41H10.54 c-0.8,0-1.55,0.31-2.09,0.84c-0.53,0.53-0.84,1.24-0.84,2.09v21.43L7.56,44.09L7.56,44.09L7.56,44.09z M115.18,52.9H7.56v59.39 c0,0.8,0.31,1.55,0.84,2.09c0.53,0.53,1.24,0.84,2.09,0.84l101.76,0c0.8,0,1.55-0.31,2.09-0.84c0.53-0.53,0.84-1.24,0.84-2.09V52.9 L115.18,52.9z M50.36,19.73c-1.78,0-3.2-2.63-3.2-4.41c0-1.78,1.42-3.2,3.2-3.2h21.49c1.78,0,3.2,1.42,3.2,3.2 c0,1.78-1.42,4.41-3.2,4.41H50.36L50.36,19.73z"/></g></svg>